<svg width="200" height="200" viewBox="0 0 200 200" fill="none" xmlns="http://www.w3.org/2000/svg">
<circle cx="100" cy="100" r="100" fill="#DCB5A4"/>
<path d="M143 127H56C50.4772 127 46 131.477 46 137V150C46 155.523 50.4772 160 56 160H143C148.523 160 153 155.523 153 150V137C153 131.477 148.523 127 143 127Z" fill="black"/>
<path d="M136.17 69.0872C139.936 65.0155 139.668 58.6573 135.575 54.9161L126.592 46.7067C122.532 42.9963 116.237 43.2611 112.503 47.2992L94.3215 66.962C91.1484 70.3935 85.8571 70.7744 82.2252 67.8327V67.8327C78.4335 64.7616 72.8734 65.3294 69.7807 69.1035L61.3744 79.3618C57.8598 83.6507 58.5061 89.9805 62.8149 93.4707L84.5858 111.105C88.68 114.421 94.6449 113.992 98.222 110.124L136.17 69.0872Z" fill="black"/>
</svg>
