<svg width="200" height="200" viewBox="0 0 200 200" fill="none" xmlns="http://www.w3.org/2000/svg">
<path d="M200 100C200 155.228 155.228 200 100 200C44.7715 200 0 155.228 0 100C0 44.7715 44.7715 0 100 0C155.228 0 200 44.7715 200 100Z" fill="#DCB5A4"/>
<path d="M132.5 124H67.5C59.4919 124 53 130.492 53 138.5C53 146.508 59.4919 153 67.5 153H132.5C140.508 153 147 146.508 147 138.5C147 130.492 140.508 124 132.5 124Z" fill="black"/>
<path d="M135.325 70.1252C137.687 67.5799 139 64.2355 139 60.7627V60.7627C139 53.1618 132.838 47 125.237 47H124.345C120.268 47 116.376 48.6979 113.603 51.6859L95.8556 70.8078C93.0389 73.8428 88.3538 74.18 85.1316 71.5796V71.5796C81.7672 68.8646 76.8435 69.3674 74.0973 72.7063L70.112 77.5518C65.0933 83.6538 66.0146 92.6776 72.1629 97.6395L77.9778 102.332C86.8169 109.466 99.6691 108.541 107.396 100.216L135.325 70.1252Z" fill="black"/>
</svg>
