<svg width="919" height="919" viewBox="0 0 919 919" fill="none" xmlns="http://www.w3.org/2000/svg">
<path d="M75.8429 902.218L9.16298 918.287C3.77298 919.587 -1.08709 914.728 0.212906 909.328L16.283 842.647C30.093 846.377 43.1529 853.658 53.9929 864.508C64.8429 875.348 72.1229 888.408 75.8429 902.218Z" fill="#161819"/>
<path d="M254.543 859.157L75.8429 902.218C72.1229 888.408 64.8429 875.348 53.9929 864.508C43.1529 853.658 30.093 846.377 16.283 842.647L59.3429 663.958C59.3429 663.958 56.0829 718.097 120.003 724.617C120.003 724.617 120.413 751.608 143.653 774.848C166.893 798.088 193.883 798.488 193.883 798.488C200.403 862.418 254.543 859.157 254.543 859.157Z" fill="#FFDEA4"/>
<path d="M630.683 213.948L120.003 724.617C56.0829 718.097 59.3429 663.958 59.3429 663.958L570.023 153.278L630.683 213.948Z" fill="#FFC41D"/>
<path d="M765.223 348.478L254.543 859.157C254.543 859.157 200.403 862.418 193.883 798.488L704.553 287.818L765.223 348.478Z" fill="#FFC41D"/>
<path d="M837.143 276.568L765.223 348.478L704.553 287.818L630.683 213.948L570.023 153.278L641.943 81.3676L837.143 276.568Z" fill="#E0E0E0"/>
<path d="M904.363 209.338L837.143 276.568L641.943 81.3675L709.163 14.1375C728.013 -4.7125 758.563 -4.7125 777.413 14.1375L904.363 141.088C923.213 159.938 923.213 190.488 904.363 209.338Z" fill="#E04444"/>
<path d="M704.553 287.818L193.883 798.488C193.883 798.488 166.893 798.088 143.653 774.848C120.413 751.608 120.003 724.617 120.003 724.617L630.683 213.948L704.553 287.818Z" fill="#EFAB22"/>
</svg>
